<?xml version="1.0" encoding="UTF-8" standalone="no"?>
<svg
   xmlns:dc="http://purl.org/dc/elements/1.1/"
   xmlns:cc="http://creativecommons.org/ns#"
   xmlns:rdf="http://www.w3.org/1999/02/22-rdf-syntax-ns#"
   xmlns:svg="http://www.w3.org/2000/svg"
   xmlns="http://www.w3.org/2000/svg"
   xmlns:sodipodi="http://sodipodi.sourceforge.net/DTD/sodipodi-0.dtd"
   xmlns:inkscape="http://www.inkscape.org/namespaces/inkscape"
   width="52.0mm"
   height="52.0mm"
   viewBox="0 0 52.0 52.0"
   version="1.1"
   id="svg1057"
   inkscape:version="1.0.1 (3bc2e813f5, 2020-09-07)"
   sodipodi:docname="snowflake1.svg">
  <defs
     id="defs1051" />
  <sodipodi:namedview
     id="base"
     pagecolor="#ffffff"
     bordercolor="#666666"
     borderopacity="1.0"
     inkscape:pageopacity="0.0"
     inkscape:pageshadow="2"
     inkscape:zoom="11.2"
     inkscape:cx="99.747136"
     inkscape:cy="105.1512"
     inkscape:document-units="mm"
     inkscape:current-layer="layer1"
     inkscape:document-rotation="0"
     showgrid="false"
     inkscape:window-width="1404"
     inkscape:window-height="1211"
     inkscape:window-x="993"
     inkscape:window-y="83"
     inkscape:window-maximized="0"
     fit-margin-top="0"
     fit-margin-left="0"
     fit-margin-right="0"
     fit-margin-bottom="0" />
  <metadata
     id="metadata1054">
    <rdf:RDF>
      <cc:Work
         rdf:about="">
        <dc:format>image/svg+xml</dc:format>
        <dc:type
           rdf:resource="http://purl.org/dc/dcmitype/StillImage" />
        <dc:title></dc:title>
      </cc:Work>
    </rdf:RDF>
  </metadata>
  <g
     inkscape:label="[fixed] BG"
     inkscape:groupmode="layer"
     sodipodi:insensitive="true"
     id="g1111">
    <rect
       x="0"
       y="0"
       width="52.0"
       height="52.0"
       style="fill:#FFFFFF;fill-opacity:1;stroke:none"
       id="rect1109" />
  </g>
  <g
     inkscape:label="F.Cu"
     inkscape:groupmode="layer"
     id="g1113" />
  <g
     id="g1303"
     transform="matrix(0.26793127,0,0,0.26793127,18.762924,21.923932)">
    <g
       id="g920"
       transform="rotate(15,525.44762,-240.09685)">
      <path
         style="fill:none;stroke:#000000;stroke-width:1.86615023;stroke-linecap:butt;stroke-linejoin:miter;stroke-opacity:1;stroke-miterlimit:4;stroke-dasharray:none"
         d="m 111.26907,123.40896 v 22.97511"
         id="path1620" />
      <path
         style="fill:#000000;fill-opacity:1;stroke:#000000;stroke-width:0.264583px;stroke-linecap:butt;stroke-linejoin:miter;stroke-opacity:1"
         d="m 111.24444,137.92407 -5.23296,4.92475 5.25759,3.53525"
         id="path1622" />
      <path
         style="fill:#000000;fill-opacity:1;stroke:#000000;stroke-width:0.264583px;stroke-linecap:butt;stroke-linejoin:miter;stroke-opacity:1"
         d="m 111.16323,125.37424 -5.3424,-1.16338 -3.01379,2.26338 3.9728,1.741 4.43309,-0.49661"
         id="path1624"
         sodipodi:nodetypes="ccccc" />
      <path
         style="fill:#000000;fill-opacity:1;stroke:#000000;stroke-width:0.264583px;stroke-linecap:butt;stroke-linejoin:miter;stroke-opacity:1"
         d="m 111.26907,123.40896 -3.74466,-2.42913 -0.37291,0.96455 4.01173,3.42986"
         id="path1626" />
      <path
         style="fill:#000000;fill-opacity:1;stroke:#000000;stroke-width:0.264583px;stroke-linecap:butt;stroke-linejoin:miter;stroke-opacity:1"
         d="m 111.13936,131.32562 -7.48478,-1.38451 -0.80269,2.90052 8.31397,2.90168"
         id="path1628" />
      <path
         style="fill:#000000;fill-opacity:1;stroke:#000000;stroke-width:0.264583px;stroke-linecap:butt;stroke-linejoin:miter;stroke-opacity:1"
         d="m 111.26907,123.40896 -3.74466,-2.42913 -0.37291,0.96455 4.01173,3.42986"
         id="path853"
         transform="matrix(-1,0,0,1,222.538,0)" />
      <path
         style="fill:#000000;fill-opacity:1;stroke:#000000;stroke-width:0.264583px;stroke-linecap:butt;stroke-linejoin:miter;stroke-opacity:1"
         d="m 111.16323,125.37424 -5.3424,-1.16338 -3.01379,2.26338 3.9728,1.741 4.43309,-0.49661"
         id="path866"
         sodipodi:nodetypes="ccccc"
         transform="matrix(-1,0,0,1,222.538,0)" />
      <path
         style="fill:#000000;fill-opacity:1;stroke:#000000;stroke-width:0.264583px;stroke-linecap:butt;stroke-linejoin:miter;stroke-opacity:1"
         d="m 111.13936,131.32562 -7.48478,-1.38451 -0.80269,2.90052 8.31397,2.90168"
         id="path880"
         transform="matrix(-1,0,0,1,222.538,0)" />
      <path
         style="fill:#000000;fill-opacity:1;stroke:#000000;stroke-width:0.264583px;stroke-linecap:butt;stroke-linejoin:miter;stroke-opacity:1"
         d="m 111.24444,137.92407 -5.23296,4.92475 5.25759,3.53525"
         id="path895"
         transform="matrix(-1,0,0,1,222.538,0)" />
    </g>
    <g
       id="g940"
       transform="rotate(-165,60.387752,91.856415)">
      <path
         style="fill:none;stroke:#000000;stroke-width:1.86615023;stroke-linecap:butt;stroke-linejoin:miter;stroke-opacity:1;stroke-miterlimit:4;stroke-dasharray:none"
         d="m 111.26907,123.40896 v 22.97511"
         id="path922" />
      <path
         style="fill:#000000;fill-opacity:1;stroke:#000000;stroke-width:0.264583px;stroke-linecap:butt;stroke-linejoin:miter;stroke-opacity:1"
         d="m 111.24444,137.92407 -5.23296,4.92475 5.25759,3.53525"
         id="path924" />
      <path
         style="fill:#000000;fill-opacity:1;stroke:#000000;stroke-width:0.264583px;stroke-linecap:butt;stroke-linejoin:miter;stroke-opacity:1"
         d="m 111.16323,125.37424 -5.3424,-1.16338 -3.01379,2.26338 3.9728,1.741 4.43309,-0.49661"
         id="path926"
         sodipodi:nodetypes="ccccc" />
      <path
         style="fill:#000000;fill-opacity:1;stroke:#000000;stroke-width:0.264583px;stroke-linecap:butt;stroke-linejoin:miter;stroke-opacity:1"
         d="m 111.26907,123.40896 -3.74466,-2.42913 -0.37291,0.96455 4.01173,3.42986"
         id="path928" />
      <path
         style="fill:#000000;fill-opacity:1;stroke:#000000;stroke-width:0.264583px;stroke-linecap:butt;stroke-linejoin:miter;stroke-opacity:1"
         d="m 111.13936,131.32562 -7.48478,-1.38451 -0.80269,2.90052 8.31397,2.90168"
         id="path930" />
      <path
         style="fill:#000000;fill-opacity:1;stroke:#000000;stroke-width:0.264583px;stroke-linecap:butt;stroke-linejoin:miter;stroke-opacity:1"
         d="m 111.26907,123.40896 -3.74466,-2.42913 -0.37291,0.96455 4.01173,3.42986"
         id="path932"
         transform="matrix(-1,0,0,1,222.538,0)" />
      <path
         style="fill:#000000;fill-opacity:1;stroke:#000000;stroke-width:0.264583px;stroke-linecap:butt;stroke-linejoin:miter;stroke-opacity:1"
         d="m 111.16323,125.37424 -5.3424,-1.16338 -3.01379,2.26338 3.9728,1.741 4.43309,-0.49661"
         id="path934"
         sodipodi:nodetypes="ccccc"
         transform="matrix(-1,0,0,1,222.538,0)" />
      <path
         style="fill:#000000;fill-opacity:1;stroke:#000000;stroke-width:0.264583px;stroke-linecap:butt;stroke-linejoin:miter;stroke-opacity:1"
         d="m 111.13936,131.32562 -7.48478,-1.38451 -0.80269,2.90052 8.31397,2.90168"
         id="path936"
         transform="matrix(-1,0,0,1,222.538,0)" />
      <path
         style="fill:#000000;fill-opacity:1;stroke:#000000;stroke-width:0.264583px;stroke-linecap:butt;stroke-linejoin:miter;stroke-opacity:1"
         d="m 111.24444,137.92407 -5.23296,4.92475 5.25759,3.53525"
         id="path938"
         transform="matrix(-1,0,0,1,222.538,0)" />
    </g>
    <g
       id="g960"
       transform="rotate(75,146.74326,30.217055)">
      <path
         style="fill:none;stroke:#000000;stroke-width:1.86615023;stroke-linecap:butt;stroke-linejoin:miter;stroke-opacity:1;stroke-miterlimit:4;stroke-dasharray:none"
         d="m 111.26907,123.40896 v 22.97511"
         id="path942" />
      <path
         style="fill:#000000;fill-opacity:1;stroke:#000000;stroke-width:0.264583px;stroke-linecap:butt;stroke-linejoin:miter;stroke-opacity:1"
         d="m 111.24444,137.92407 -5.23296,4.92475 5.25759,3.53525"
         id="path944" />
      <path
         style="fill:#000000;fill-opacity:1;stroke:#000000;stroke-width:0.264583px;stroke-linecap:butt;stroke-linejoin:miter;stroke-opacity:1"
         d="m 111.16323,125.37424 -5.3424,-1.16338 -3.01379,2.26338 3.9728,1.741 4.43309,-0.49661"
         id="path946"
         sodipodi:nodetypes="ccccc" />
      <path
         style="fill:#000000;fill-opacity:1;stroke:#000000;stroke-width:0.264583px;stroke-linecap:butt;stroke-linejoin:miter;stroke-opacity:1"
         d="m 111.26907,123.40896 -3.74466,-2.42913 -0.37291,0.96455 4.01173,3.42986"
         id="path948" />
      <path
         style="fill:#000000;fill-opacity:1;stroke:#000000;stroke-width:0.264583px;stroke-linecap:butt;stroke-linejoin:miter;stroke-opacity:1"
         d="m 111.13936,131.32562 -7.48478,-1.38451 -0.80269,2.90052 8.31397,2.90168"
         id="path950" />
      <path
         style="fill:#000000;fill-opacity:1;stroke:#000000;stroke-width:0.264583px;stroke-linecap:butt;stroke-linejoin:miter;stroke-opacity:1"
         d="m 111.26907,123.40896 -3.74466,-2.42913 -0.37291,0.96455 4.01173,3.42986"
         id="path952"
         transform="matrix(-1,0,0,1,222.538,0)" />
      <path
         style="fill:#000000;fill-opacity:1;stroke:#000000;stroke-width:0.264583px;stroke-linecap:butt;stroke-linejoin:miter;stroke-opacity:1"
         d="m 111.16323,125.37424 -5.3424,-1.16338 -3.01379,2.26338 3.9728,1.741 4.43309,-0.49661"
         id="path954"
         sodipodi:nodetypes="ccccc"
         transform="matrix(-1,0,0,1,222.538,0)" />
      <path
         style="fill:#000000;fill-opacity:1;stroke:#000000;stroke-width:0.264583px;stroke-linecap:butt;stroke-linejoin:miter;stroke-opacity:1"
         d="m 111.13936,131.32562 -7.48478,-1.38451 -0.80269,2.90052 8.31397,2.90168"
         id="path956"
         transform="matrix(-1,0,0,1,222.538,0)" />
      <path
         style="fill:#000000;fill-opacity:1;stroke:#000000;stroke-width:0.264583px;stroke-linecap:butt;stroke-linejoin:miter;stroke-opacity:1"
         d="m 111.24444,137.92407 -5.23296,4.92475 5.25759,3.53525"
         id="path958"
         transform="matrix(-1,0,0,1,222.538,0)" />
    </g>
    <g
       id="g980"
       transform="rotate(-105,22.130841,119.16366)">
      <path
         style="fill:none;stroke:#000000;stroke-width:1.86615023;stroke-linecap:butt;stroke-linejoin:miter;stroke-opacity:1;stroke-miterlimit:4;stroke-dasharray:none"
         d="m 111.26907,123.40896 v 22.97511"
         id="path962" />
      <path
         style="fill:#000000;fill-opacity:1;stroke:#000000;stroke-width:0.264583px;stroke-linecap:butt;stroke-linejoin:miter;stroke-opacity:1"
         d="m 111.24444,137.92407 -5.23296,4.92475 5.25759,3.53525"
         id="path964" />
      <path
         style="fill:#000000;fill-opacity:1;stroke:#000000;stroke-width:0.264583px;stroke-linecap:butt;stroke-linejoin:miter;stroke-opacity:1"
         d="m 111.16323,125.37424 -5.3424,-1.16338 -3.01379,2.26338 3.9728,1.741 4.43309,-0.49661"
         id="path966"
         sodipodi:nodetypes="ccccc" />
      <path
         style="fill:#000000;fill-opacity:1;stroke:#000000;stroke-width:0.264583px;stroke-linecap:butt;stroke-linejoin:miter;stroke-opacity:1"
         d="m 111.26907,123.40896 -3.74466,-2.42913 -0.37291,0.96455 4.01173,3.42986"
         id="path968" />
      <path
         style="fill:#000000;fill-opacity:1;stroke:#000000;stroke-width:0.264583px;stroke-linecap:butt;stroke-linejoin:miter;stroke-opacity:1"
         d="m 111.13936,131.32562 -7.48478,-1.38451 -0.80269,2.90052 8.31397,2.90168"
         id="path970" />
      <path
         style="fill:#000000;fill-opacity:1;stroke:#000000;stroke-width:0.264583px;stroke-linecap:butt;stroke-linejoin:miter;stroke-opacity:1"
         d="m 111.26907,123.40896 -3.74466,-2.42913 -0.37291,0.96455 4.01173,3.42986"
         id="path972"
         transform="matrix(-1,0,0,1,222.538,0)" />
      <path
         style="fill:#000000;fill-opacity:1;stroke:#000000;stroke-width:0.264583px;stroke-linecap:butt;stroke-linejoin:miter;stroke-opacity:1"
         d="m 111.16323,125.37424 -5.3424,-1.16338 -3.01379,2.26338 3.9728,1.741 4.43309,-0.49661"
         id="path974"
         sodipodi:nodetypes="ccccc"
         transform="matrix(-1,0,0,1,222.538,0)" />
      <path
         style="fill:#000000;fill-opacity:1;stroke:#000000;stroke-width:0.264583px;stroke-linecap:butt;stroke-linejoin:miter;stroke-opacity:1"
         d="m 111.13936,131.32562 -7.48478,-1.38451 -0.80269,2.90052 8.31397,2.90168"
         id="path976"
         transform="matrix(-1,0,0,1,222.538,0)" />
      <path
         style="fill:#000000;fill-opacity:1;stroke:#000000;stroke-width:0.264583px;stroke-linecap:butt;stroke-linejoin:miter;stroke-opacity:1"
         d="m 111.24444,137.92407 -5.23296,4.92475 5.25759,3.53525"
         id="path978"
         transform="matrix(-1,0,0,1,222.538,0)" />
    </g>
    <g
       id="g1000"
       transform="rotate(135,93.2397,68.407146)"
       style="stroke-width:1;stroke-miterlimit:4;stroke-dasharray:none">
      <path
         style="fill:none;stroke:#000000;stroke-width:1;stroke-linecap:butt;stroke-linejoin:miter;stroke-miterlimit:4;stroke-dasharray:none;stroke-opacity:1"
         d="m 111.26907,123.40896 v 22.97511"
         id="path982" />
      <path
         style="fill:#000000;fill-opacity:1;stroke:#000000;stroke-width:1;stroke-linecap:butt;stroke-linejoin:miter;stroke-miterlimit:4;stroke-dasharray:none;stroke-opacity:1"
         d="m 111.24444,137.92407 -5.23296,4.92475 5.25759,3.53525"
         id="path984" />
      <path
         style="fill:#000000;fill-opacity:1;stroke:#000000;stroke-width:1;stroke-linecap:butt;stroke-linejoin:miter;stroke-miterlimit:4;stroke-dasharray:none;stroke-opacity:1"
         d="m 111.16323,125.37424 -5.3424,-1.16338 -3.01379,2.26338 3.9728,1.741 4.43309,-0.49661"
         id="path986"
         sodipodi:nodetypes="ccccc" />
      <path
         style="fill:#000000;fill-opacity:1;stroke:#000000;stroke-width:1;stroke-linecap:butt;stroke-linejoin:miter;stroke-miterlimit:4;stroke-dasharray:none;stroke-opacity:1"
         d="m 111.26907,123.40896 -3.74466,-2.42913 -0.37291,0.96455 4.01173,3.42986"
         id="path988" />
      <path
         style="fill:#000000;fill-opacity:1;stroke:#000000;stroke-width:1;stroke-linecap:butt;stroke-linejoin:miter;stroke-miterlimit:4;stroke-dasharray:none;stroke-opacity:1"
         d="m 111.13936,131.32562 -7.48478,-1.38451 -0.80269,2.90052 8.31397,2.90168"
         id="path990" />
      <path
         style="fill:#000000;fill-opacity:1;stroke:#000000;stroke-width:1;stroke-linecap:butt;stroke-linejoin:miter;stroke-miterlimit:4;stroke-dasharray:none;stroke-opacity:1"
         d="m 111.26907,123.40896 -3.74466,-2.42913 -0.37291,0.96455 4.01173,3.42986"
         id="path992"
         transform="matrix(-1,0,0,1,222.538,0)" />
      <path
         style="fill:#000000;fill-opacity:1;stroke:#000000;stroke-width:1;stroke-linecap:butt;stroke-linejoin:miter;stroke-miterlimit:4;stroke-dasharray:none;stroke-opacity:1"
         d="m 111.16323,125.37424 -5.3424,-1.16338 -3.01379,2.26338 3.9728,1.741 4.43309,-0.49661"
         id="path994"
         sodipodi:nodetypes="ccccc"
         transform="matrix(-1,0,0,1,222.538,0)" />
      <path
         style="fill:#000000;fill-opacity:1;stroke:#000000;stroke-width:1;stroke-linecap:butt;stroke-linejoin:miter;stroke-miterlimit:4;stroke-dasharray:none;stroke-opacity:1"
         d="m 111.13936,131.32562 -7.48478,-1.38451 -0.80269,2.90052 8.31397,2.90168"
         id="path996"
         transform="matrix(-1,0,0,1,222.538,0)" />
      <path
         style="fill:#000000;fill-opacity:1;stroke:#000000;stroke-width:1;stroke-linecap:butt;stroke-linejoin:miter;stroke-miterlimit:4;stroke-dasharray:none;stroke-opacity:1"
         d="m 111.24444,137.92407 -5.23296,4.92475 5.25759,3.53525"
         id="path998"
         transform="matrix(-1,0,0,1,222.538,0)" />
    </g>
    <g
       id="g1020"
       transform="rotate(-45,-76.984013,189.91047)">
      <path
         style="fill:none;stroke:#000000;stroke-width:1.86615023;stroke-linecap:butt;stroke-linejoin:miter;stroke-opacity:1;stroke-miterlimit:4;stroke-dasharray:none"
         d="m 111.26907,123.40896 v 22.97511"
         id="path1002" />
      <path
         style="fill:#000000;fill-opacity:1;stroke:#000000;stroke-width:0.264583px;stroke-linecap:butt;stroke-linejoin:miter;stroke-opacity:1"
         d="m 111.24444,137.92407 -5.23296,4.92475 5.25759,3.53525"
         id="path1004" />
      <path
         style="fill:#000000;fill-opacity:1;stroke:#000000;stroke-width:0.264583px;stroke-linecap:butt;stroke-linejoin:miter;stroke-opacity:1"
         d="m 111.16323,125.37424 -5.3424,-1.16338 -3.01379,2.26338 3.9728,1.741 4.43309,-0.49661"
         id="path1006"
         sodipodi:nodetypes="ccccc" />
      <path
         style="fill:#000000;fill-opacity:1;stroke:#000000;stroke-width:0.264583px;stroke-linecap:butt;stroke-linejoin:miter;stroke-opacity:1"
         d="m 111.26907,123.40896 -3.74466,-2.42913 -0.37291,0.96455 4.01173,3.42986"
         id="path1008" />
      <path
         style="fill:#000000;fill-opacity:1;stroke:#000000;stroke-width:0.264583px;stroke-linecap:butt;stroke-linejoin:miter;stroke-opacity:1"
         d="m 111.13936,131.32562 -7.48478,-1.38451 -0.80269,2.90052 8.31397,2.90168"
         id="path1010" />
      <path
         style="fill:#000000;fill-opacity:1;stroke:#000000;stroke-width:0.264583px;stroke-linecap:butt;stroke-linejoin:miter;stroke-opacity:1"
         d="m 111.26907,123.40896 -3.74466,-2.42913 -0.37291,0.96455 4.01173,3.42986"
         id="path1012"
         transform="matrix(-1,0,0,1,222.538,0)" />
      <path
         style="fill:#000000;fill-opacity:1;stroke:#000000;stroke-width:0.264583px;stroke-linecap:butt;stroke-linejoin:miter;stroke-opacity:1"
         d="m 111.16323,125.37424 -5.3424,-1.16338 -3.01379,2.26338 3.9728,1.741 4.43309,-0.49661"
         id="path1014"
         sodipodi:nodetypes="ccccc"
         transform="matrix(-1,0,0,1,222.538,0)" />
      <path
         style="fill:#000000;fill-opacity:1;stroke:#000000;stroke-width:0.264583px;stroke-linecap:butt;stroke-linejoin:miter;stroke-opacity:1"
         d="m 111.13936,131.32562 -7.48478,-1.38451 -0.80269,2.90052 8.31397,2.90168"
         id="path1016"
         transform="matrix(-1,0,0,1,222.538,0)" />
      <path
         style="fill:#000000;fill-opacity:1;stroke:#000000;stroke-width:0.264583px;stroke-linecap:butt;stroke-linejoin:miter;stroke-opacity:1"
         d="m 111.24444,137.92407 -5.23296,4.92475 5.25759,3.53525"
         id="path1018"
         transform="matrix(-1,0,0,1,222.538,0)" />
    </g>
  </g>
  <g
     inkscape:groupmode="layer"
     id="layer1"
     inkscape:label="F.Mask"
     transform="matrix(0.26793127,0,0,0.26793127,18.762924,21.923932)"
     style="display:inline" />
  <g
     id="g1427"
     transform="matrix(0.26793127,0,0,0.26793127,18.762924,21.923932)">
    <g
       id="g1325"
       transform="rotate(15,525.44762,-240.09685)">
      <path
         style="fill:none;stroke:#000000;stroke-width:1.86615023;stroke-linecap:butt;stroke-linejoin:miter;stroke-opacity:1;stroke-miterlimit:4;stroke-dasharray:none"
         d="m 111.26907,123.40896 v 22.97511"
         id="path1307" />
      <path
         style="fill:#000000;fill-opacity:1;stroke:#000000;stroke-width:0.264583px;stroke-linecap:butt;stroke-linejoin:miter;stroke-opacity:1"
         d="m 111.24444,137.92407 -5.23296,4.92475 5.25759,3.53525"
         id="path1309" />
      <path
         style="fill:#000000;fill-opacity:1;stroke:#000000;stroke-width:0.264583px;stroke-linecap:butt;stroke-linejoin:miter;stroke-opacity:1"
         d="m 111.16323,125.37424 -5.3424,-1.16338 -3.01379,2.26338 3.9728,1.741 4.43309,-0.49661"
         id="path1311"
         sodipodi:nodetypes="ccccc" />
      <path
         style="fill:#000000;fill-opacity:1;stroke:#000000;stroke-width:0.264583px;stroke-linecap:butt;stroke-linejoin:miter;stroke-opacity:1"
         d="m 111.26907,123.40896 -3.74466,-2.42913 -0.37291,0.96455 4.01173,3.42986"
         id="path1313" />
      <path
         style="fill:#000000;fill-opacity:1;stroke:#000000;stroke-width:0.264583px;stroke-linecap:butt;stroke-linejoin:miter;stroke-opacity:1"
         d="m 111.13936,131.32562 -7.48478,-1.38451 -0.80269,2.90052 8.31397,2.90168"
         id="path1315" />
      <path
         style="fill:#000000;fill-opacity:1;stroke:#000000;stroke-width:0.264583px;stroke-linecap:butt;stroke-linejoin:miter;stroke-opacity:1"
         d="m 111.26907,123.40896 -3.74466,-2.42913 -0.37291,0.96455 4.01173,3.42986"
         id="path1317"
         transform="matrix(-1,0,0,1,222.538,0)" />
      <path
         style="fill:#000000;fill-opacity:1;stroke:#000000;stroke-width:0.264583px;stroke-linecap:butt;stroke-linejoin:miter;stroke-opacity:1"
         d="m 111.16323,125.37424 -5.3424,-1.16338 -3.01379,2.26338 3.9728,1.741 4.43309,-0.49661"
         id="path1319"
         sodipodi:nodetypes="ccccc"
         transform="matrix(-1,0,0,1,222.538,0)" />
      <path
         style="fill:#000000;fill-opacity:1;stroke:#000000;stroke-width:0.264583px;stroke-linecap:butt;stroke-linejoin:miter;stroke-opacity:1"
         d="m 111.13936,131.32562 -7.48478,-1.38451 -0.80269,2.90052 8.31397,2.90168"
         id="path1321"
         transform="matrix(-1,0,0,1,222.538,0)" />
      <path
         style="fill:#000000;fill-opacity:1;stroke:#000000;stroke-width:0.264583px;stroke-linecap:butt;stroke-linejoin:miter;stroke-opacity:1"
         d="m 111.24444,137.92407 -5.23296,4.92475 5.25759,3.53525"
         id="path1323"
         transform="matrix(-1,0,0,1,222.538,0)" />
    </g>
    <g
       id="g1345"
       transform="rotate(-165,60.387752,91.856415)">
      <path
         style="fill:none;stroke:#000000;stroke-width:1.86615023;stroke-linecap:butt;stroke-linejoin:miter;stroke-opacity:1;stroke-miterlimit:4;stroke-dasharray:none"
         d="m 111.26907,123.40896 v 22.97511"
         id="path1327" />
      <path
         style="fill:#000000;fill-opacity:1;stroke:#000000;stroke-width:0.264583px;stroke-linecap:butt;stroke-linejoin:miter;stroke-opacity:1"
         d="m 111.24444,137.92407 -5.23296,4.92475 5.25759,3.53525"
         id="path1329" />
      <path
         style="fill:#000000;fill-opacity:1;stroke:#000000;stroke-width:0.264583px;stroke-linecap:butt;stroke-linejoin:miter;stroke-opacity:1"
         d="m 111.16323,125.37424 -5.3424,-1.16338 -3.01379,2.26338 3.9728,1.741 4.43309,-0.49661"
         id="path1331"
         sodipodi:nodetypes="ccccc" />
      <path
         style="fill:#000000;fill-opacity:1;stroke:#000000;stroke-width:0.264583px;stroke-linecap:butt;stroke-linejoin:miter;stroke-opacity:1"
         d="m 111.26907,123.40896 -3.74466,-2.42913 -0.37291,0.96455 4.01173,3.42986"
         id="path1333" />
      <path
         style="fill:#000000;fill-opacity:1;stroke:#000000;stroke-width:0.264583px;stroke-linecap:butt;stroke-linejoin:miter;stroke-opacity:1"
         d="m 111.13936,131.32562 -7.48478,-1.38451 -0.80269,2.90052 8.31397,2.90168"
         id="path1335" />
      <path
         style="fill:#000000;fill-opacity:1;stroke:#000000;stroke-width:0.264583px;stroke-linecap:butt;stroke-linejoin:miter;stroke-opacity:1"
         d="m 111.26907,123.40896 -3.74466,-2.42913 -0.37291,0.96455 4.01173,3.42986"
         id="path1337"
         transform="matrix(-1,0,0,1,222.538,0)" />
      <path
         style="fill:#000000;fill-opacity:1;stroke:#000000;stroke-width:0.264583px;stroke-linecap:butt;stroke-linejoin:miter;stroke-opacity:1"
         d="m 111.16323,125.37424 -5.3424,-1.16338 -3.01379,2.26338 3.9728,1.741 4.43309,-0.49661"
         id="path1339"
         sodipodi:nodetypes="ccccc"
         transform="matrix(-1,0,0,1,222.538,0)" />
      <path
         style="fill:#000000;fill-opacity:1;stroke:#000000;stroke-width:0.264583px;stroke-linecap:butt;stroke-linejoin:miter;stroke-opacity:1"
         d="m 111.13936,131.32562 -7.48478,-1.38451 -0.80269,2.90052 8.31397,2.90168"
         id="path1341"
         transform="matrix(-1,0,0,1,222.538,0)" />
      <path
         style="fill:#000000;fill-opacity:1;stroke:#000000;stroke-width:0.264583px;stroke-linecap:butt;stroke-linejoin:miter;stroke-opacity:1"
         d="m 111.24444,137.92407 -5.23296,4.92475 5.25759,3.53525"
         id="path1343"
         transform="matrix(-1,0,0,1,222.538,0)" />
    </g>
    <g
       id="g1365"
       transform="rotate(75,146.74326,30.217055)">
      <path
         style="fill:none;stroke:#000000;stroke-width:1.86615023;stroke-linecap:butt;stroke-linejoin:miter;stroke-opacity:1;stroke-miterlimit:4;stroke-dasharray:none"
         d="m 111.26907,123.40896 v 22.97511"
         id="path1347" />
      <path
         style="fill:#000000;fill-opacity:1;stroke:#000000;stroke-width:0.264583px;stroke-linecap:butt;stroke-linejoin:miter;stroke-opacity:1"
         d="m 111.24444,137.92407 -5.23296,4.92475 5.25759,3.53525"
         id="path1349" />
      <path
         style="fill:#000000;fill-opacity:1;stroke:#000000;stroke-width:0.264583px;stroke-linecap:butt;stroke-linejoin:miter;stroke-opacity:1"
         d="m 111.16323,125.37424 -5.3424,-1.16338 -3.01379,2.26338 3.9728,1.741 4.43309,-0.49661"
         id="path1351"
         sodipodi:nodetypes="ccccc" />
      <path
         style="fill:#000000;fill-opacity:1;stroke:#000000;stroke-width:0.264583px;stroke-linecap:butt;stroke-linejoin:miter;stroke-opacity:1"
         d="m 111.26907,123.40896 -3.74466,-2.42913 -0.37291,0.96455 4.01173,3.42986"
         id="path1353" />
      <path
         style="fill:#000000;fill-opacity:1;stroke:#000000;stroke-width:0.264583px;stroke-linecap:butt;stroke-linejoin:miter;stroke-opacity:1"
         d="m 111.13936,131.32562 -7.48478,-1.38451 -0.80269,2.90052 8.31397,2.90168"
         id="path1355" />
      <path
         style="fill:#000000;fill-opacity:1;stroke:#000000;stroke-width:0.264583px;stroke-linecap:butt;stroke-linejoin:miter;stroke-opacity:1"
         d="m 111.26907,123.40896 -3.74466,-2.42913 -0.37291,0.96455 4.01173,3.42986"
         id="path1357"
         transform="matrix(-1,0,0,1,222.538,0)" />
      <path
         style="fill:#000000;fill-opacity:1;stroke:#000000;stroke-width:0.264583px;stroke-linecap:butt;stroke-linejoin:miter;stroke-opacity:1"
         d="m 111.16323,125.37424 -5.3424,-1.16338 -3.01379,2.26338 3.9728,1.741 4.43309,-0.49661"
         id="path1359"
         sodipodi:nodetypes="ccccc"
         transform="matrix(-1,0,0,1,222.538,0)" />
      <path
         style="fill:#000000;fill-opacity:1;stroke:#000000;stroke-width:0.264583px;stroke-linecap:butt;stroke-linejoin:miter;stroke-opacity:1"
         d="m 111.13936,131.32562 -7.48478,-1.38451 -0.80269,2.90052 8.31397,2.90168"
         id="path1361"
         transform="matrix(-1,0,0,1,222.538,0)" />
      <path
         style="fill:#000000;fill-opacity:1;stroke:#000000;stroke-width:0.264583px;stroke-linecap:butt;stroke-linejoin:miter;stroke-opacity:1"
         d="m 111.24444,137.92407 -5.23296,4.92475 5.25759,3.53525"
         id="path1363"
         transform="matrix(-1,0,0,1,222.538,0)" />
    </g>
    <g
       id="g1385"
       transform="rotate(-105,22.130841,119.16366)">
      <path
         style="fill:none;stroke:#000000;stroke-width:1.86615023;stroke-linecap:butt;stroke-linejoin:miter;stroke-opacity:1;stroke-miterlimit:4;stroke-dasharray:none"
         d="m 111.26907,123.40896 v 22.97511"
         id="path1367" />
      <path
         style="fill:#000000;fill-opacity:1;stroke:#000000;stroke-width:0.264583px;stroke-linecap:butt;stroke-linejoin:miter;stroke-opacity:1"
         d="m 111.24444,137.92407 -5.23296,4.92475 5.25759,3.53525"
         id="path1369" />
      <path
         style="fill:#000000;fill-opacity:1;stroke:#000000;stroke-width:0.264583px;stroke-linecap:butt;stroke-linejoin:miter;stroke-opacity:1"
         d="m 111.16323,125.37424 -5.3424,-1.16338 -3.01379,2.26338 3.9728,1.741 4.43309,-0.49661"
         id="path1371"
         sodipodi:nodetypes="ccccc" />
      <path
         style="fill:#000000;fill-opacity:1;stroke:#000000;stroke-width:0.264583px;stroke-linecap:butt;stroke-linejoin:miter;stroke-opacity:1"
         d="m 111.26907,123.40896 -3.74466,-2.42913 -0.37291,0.96455 4.01173,3.42986"
         id="path1373" />
      <path
         style="fill:#000000;fill-opacity:1;stroke:#000000;stroke-width:0.264583px;stroke-linecap:butt;stroke-linejoin:miter;stroke-opacity:1"
         d="m 111.13936,131.32562 -7.48478,-1.38451 -0.80269,2.90052 8.31397,2.90168"
         id="path1375" />
      <path
         style="fill:#000000;fill-opacity:1;stroke:#000000;stroke-width:0.264583px;stroke-linecap:butt;stroke-linejoin:miter;stroke-opacity:1"
         d="m 111.26907,123.40896 -3.74466,-2.42913 -0.37291,0.96455 4.01173,3.42986"
         id="path1377"
         transform="matrix(-1,0,0,1,222.538,0)" />
      <path
         style="fill:#000000;fill-opacity:1;stroke:#000000;stroke-width:0.264583px;stroke-linecap:butt;stroke-linejoin:miter;stroke-opacity:1"
         d="m 111.16323,125.37424 -5.3424,-1.16338 -3.01379,2.26338 3.9728,1.741 4.43309,-0.49661"
         id="path1379"
         sodipodi:nodetypes="ccccc"
         transform="matrix(-1,0,0,1,222.538,0)" />
      <path
         style="fill:#000000;fill-opacity:1;stroke:#000000;stroke-width:0.264583px;stroke-linecap:butt;stroke-linejoin:miter;stroke-opacity:1"
         d="m 111.13936,131.32562 -7.48478,-1.38451 -0.80269,2.90052 8.31397,2.90168"
         id="path1381"
         transform="matrix(-1,0,0,1,222.538,0)" />
      <path
         style="fill:#000000;fill-opacity:1;stroke:#000000;stroke-width:0.264583px;stroke-linecap:butt;stroke-linejoin:miter;stroke-opacity:1"
         d="m 111.24444,137.92407 -5.23296,4.92475 5.25759,3.53525"
         id="path1383"
         transform="matrix(-1,0,0,1,222.538,0)" />
    </g>
    <g
       id="g1405"
       transform="rotate(135,93.2397,68.407146)"
       style="stroke-width:1;stroke-miterlimit:4;stroke-dasharray:none">
      <path
         style="fill:none;stroke:#000000;stroke-width:1;stroke-linecap:butt;stroke-linejoin:miter;stroke-miterlimit:4;stroke-dasharray:none;stroke-opacity:1"
         d="m 111.26907,123.40896 v 22.97511"
         id="path1387" />
      <path
         style="fill:#000000;fill-opacity:1;stroke:#000000;stroke-width:1;stroke-linecap:butt;stroke-linejoin:miter;stroke-miterlimit:4;stroke-dasharray:none;stroke-opacity:1"
         d="m 111.24444,137.92407 -5.23296,4.92475 5.25759,3.53525"
         id="path1389" />
      <path
         style="fill:#000000;fill-opacity:1;stroke:#000000;stroke-width:1;stroke-linecap:butt;stroke-linejoin:miter;stroke-miterlimit:4;stroke-dasharray:none;stroke-opacity:1"
         d="m 111.16323,125.37424 -5.3424,-1.16338 -3.01379,2.26338 3.9728,1.741 4.43309,-0.49661"
         id="path1391"
         sodipodi:nodetypes="ccccc" />
      <path
         style="fill:#000000;fill-opacity:1;stroke:#000000;stroke-width:1;stroke-linecap:butt;stroke-linejoin:miter;stroke-miterlimit:4;stroke-dasharray:none;stroke-opacity:1"
         d="m 111.26907,123.40896 -3.74466,-2.42913 -0.37291,0.96455 4.01173,3.42986"
         id="path1393" />
      <path
         style="fill:#000000;fill-opacity:1;stroke:#000000;stroke-width:1;stroke-linecap:butt;stroke-linejoin:miter;stroke-miterlimit:4;stroke-dasharray:none;stroke-opacity:1"
         d="m 111.13936,131.32562 -7.48478,-1.38451 -0.80269,2.90052 8.31397,2.90168"
         id="path1395" />
      <path
         style="fill:#000000;fill-opacity:1;stroke:#000000;stroke-width:1;stroke-linecap:butt;stroke-linejoin:miter;stroke-miterlimit:4;stroke-dasharray:none;stroke-opacity:1"
         d="m 111.26907,123.40896 -3.74466,-2.42913 -0.37291,0.96455 4.01173,3.42986"
         id="path1397"
         transform="matrix(-1,0,0,1,222.538,0)" />
      <path
         style="fill:#000000;fill-opacity:1;stroke:#000000;stroke-width:1;stroke-linecap:butt;stroke-linejoin:miter;stroke-miterlimit:4;stroke-dasharray:none;stroke-opacity:1"
         d="m 111.16323,125.37424 -5.3424,-1.16338 -3.01379,2.26338 3.9728,1.741 4.43309,-0.49661"
         id="path1399"
         sodipodi:nodetypes="ccccc"
         transform="matrix(-1,0,0,1,222.538,0)" />
      <path
         style="fill:#000000;fill-opacity:1;stroke:#000000;stroke-width:1;stroke-linecap:butt;stroke-linejoin:miter;stroke-miterlimit:4;stroke-dasharray:none;stroke-opacity:1"
         d="m 111.13936,131.32562 -7.48478,-1.38451 -0.80269,2.90052 8.31397,2.90168"
         id="path1401"
         transform="matrix(-1,0,0,1,222.538,0)" />
      <path
         style="fill:#000000;fill-opacity:1;stroke:#000000;stroke-width:1;stroke-linecap:butt;stroke-linejoin:miter;stroke-miterlimit:4;stroke-dasharray:none;stroke-opacity:1"
         d="m 111.24444,137.92407 -5.23296,4.92475 5.25759,3.53525"
         id="path1403"
         transform="matrix(-1,0,0,1,222.538,0)" />
    </g>
    <g
       id="g1425"
       transform="rotate(-45,-76.984013,189.91047)">
      <path
         style="fill:none;stroke:#000000;stroke-width:1.86615023;stroke-linecap:butt;stroke-linejoin:miter;stroke-opacity:1;stroke-miterlimit:4;stroke-dasharray:none"
         d="m 111.26907,123.40896 v 22.97511"
         id="path1407" />
      <path
         style="fill:#000000;fill-opacity:1;stroke:#000000;stroke-width:0.264583px;stroke-linecap:butt;stroke-linejoin:miter;stroke-opacity:1"
         d="m 111.24444,137.92407 -5.23296,4.92475 5.25759,3.53525"
         id="path1409" />
      <path
         style="fill:#000000;fill-opacity:1;stroke:#000000;stroke-width:0.264583px;stroke-linecap:butt;stroke-linejoin:miter;stroke-opacity:1"
         d="m 111.16323,125.37424 -5.3424,-1.16338 -3.01379,2.26338 3.9728,1.741 4.43309,-0.49661"
         id="path1411"
         sodipodi:nodetypes="ccccc" />
      <path
         style="fill:#000000;fill-opacity:1;stroke:#000000;stroke-width:0.264583px;stroke-linecap:butt;stroke-linejoin:miter;stroke-opacity:1"
         d="m 111.26907,123.40896 -3.74466,-2.42913 -0.37291,0.96455 4.01173,3.42986"
         id="path1413" />
      <path
         style="fill:#000000;fill-opacity:1;stroke:#000000;stroke-width:0.264583px;stroke-linecap:butt;stroke-linejoin:miter;stroke-opacity:1"
         d="m 111.13936,131.32562 -7.48478,-1.38451 -0.80269,2.90052 8.31397,2.90168"
         id="path1415" />
      <path
         style="fill:#000000;fill-opacity:1;stroke:#000000;stroke-width:0.264583px;stroke-linecap:butt;stroke-linejoin:miter;stroke-opacity:1"
         d="m 111.26907,123.40896 -3.74466,-2.42913 -0.37291,0.96455 4.01173,3.42986"
         id="path1417"
         transform="matrix(-1,0,0,1,222.538,0)" />
      <path
         style="fill:#000000;fill-opacity:1;stroke:#000000;stroke-width:0.264583px;stroke-linecap:butt;stroke-linejoin:miter;stroke-opacity:1"
         d="m 111.16323,125.37424 -5.3424,-1.16338 -3.01379,2.26338 3.9728,1.741 4.43309,-0.49661"
         id="path1419"
         sodipodi:nodetypes="ccccc"
         transform="matrix(-1,0,0,1,222.538,0)" />
      <path
         style="fill:#000000;fill-opacity:1;stroke:#000000;stroke-width:0.264583px;stroke-linecap:butt;stroke-linejoin:miter;stroke-opacity:1"
         d="m 111.13936,131.32562 -7.48478,-1.38451 -0.80269,2.90052 8.31397,2.90168"
         id="path1421"
         transform="matrix(-1,0,0,1,222.538,0)" />
      <path
         style="fill:#000000;fill-opacity:1;stroke:#000000;stroke-width:0.264583px;stroke-linecap:butt;stroke-linejoin:miter;stroke-opacity:1"
         d="m 111.24444,137.92407 -5.23296,4.92475 5.25759,3.53525"
         id="path1423"
         transform="matrix(-1,0,0,1,222.538,0)" />
    </g>
  </g>
</svg>
